<!--

    Nano Core 2 - An adblocker
    Copyright (C) 2018  Nano Core 2 contributors

    This program is free software: you can redistribute it and/or modify
    it under the terms of the GNU General Public License as published by
    the Free Software Foundation, either version 3 of the License, or
    (at your option) any later version.

    This program is distributed in the hope that it will be useful,
    but WITHOUT ANY WARRANTY; without even the implied warranty of
    MERCHANTABILITY or FITNESS FOR A PARTICULAR PURPOSE.  See the
    GNU General Public License for more details.

    You should have received a copy of the GNU General Public License
    along with this program.  If not, see <http://www.gnu.org/licenses/>.

-->

<svg xmlns="http://www.w3.org/2000/svg" xmlns:xlink="http://www.w3.org/1999/xlink" style="display: none;">
    <defs>
        <symbol id="nano-empty" viewBox="0 0 1024 1024">
            <path d="M 101.05875,277.98251 C 83.021484,267.53429 56.892971,252.40839 42.995396,244.36945 L 17.727083,229.7532 V 161.52164 93.290144 L 59.12411,69.368737 c 67.37972,-38.935613 75.0902,-43.302096 76.4644,-43.302096 0.72051,0 16.10851,8.557359 34.19557,19.016282 18.08704,10.458962 44.25629,25.594094 58.15386,33.633661 l 25.26831,14.617379 v 68.080637 68.08061 l -26.88118,15.61641 c -83.66114,48.60214 -89.46584,51.91073 -91.03416,51.88825 -0.79042,-0.0125 -16.19489,-8.56913 -34.23216,-19.01736 z m 87.23693,-24.9614 52.0076,-30.02165 V 161.54358 100.08763 L 188.29568,70.066052 C 159.69145,53.554143 135.91841,40.044425 135.46666,40.044425 c -0.45174,0 -24.22478,13.509676 -52.828971,30.02146 l -52.007638,30.021455 -0.277589,61.30573 -0.277589,61.30571 2.965707,1.716 c 1.631137,0.9438 24.981396,14.48223 51.889463,30.08538 26.908077,15.60317 49.471447,28.40837 50.140877,28.45597 0.66939,0.0479 24.62053,-13.42316 53.22476,-29.93502 z m -25.67729,-37.98567 c -3.5816,-3.84278 -6.90268,-33.24671 -6.51469,-57.67907 0.27137,-17.08734 0.0928,-19.34854 -1.83503,-23.23075 -1.96737,-3.96189 -2.5179,-4.32584 -6.98568,-4.61804 -10.81307,-0.70721 -23.49097,12.9448 -30.85429,33.22501 -2.69158,7.41315 -2.90784,9.33046 -3.20122,28.37937 -0.2975,19.31668 -0.43893,20.5315 -2.59744,22.31068 -3.41058,2.81121 -8.69838,2.41157 -11.803159,-0.89211 -2.602761,-2.76949 -2.606531,-2.80927 -2.472653,-26.07394 0.07374,-12.8151 0.493042,-34.80078 0.931771,-48.85705 l 0.797687,-25.5569 2.774334,-2.18219 c 3.79491,-2.98503 8.51248,-2.36753 11.37984,1.48946 1.73015,2.32727 2.34157,4.9988 2.63801,11.5262 l 0.38588,8.49683 7.14553,-7.37354 c 15.84177,-16.34731 32.49761,-18.57528 43.09323,-5.76437 5.62316,6.79882 6.68027,12.22423 7.7051,39.54529 0.51023,13.60142 1.40724,27.63299 1.99341,31.18119 0.58613,3.5482 1.38756,10.15697 1.78095,14.68616 0.68445,7.88068 0.59538,8.35466 -2.07095,11.02091 -3.60768,3.60757 -9.11687,3.77204 -12.29061,0.36703 z" />
        </symbol>
    </defs>
</svg>
